# xmcd CD database file
#
# Track frame offsets:
#	150
#	19190
#	37185
#	55871
#	73405
#	90733
#	106064
#	127680
#	146646
#	174009
#	198288
#	215654
#	237428
#
# Disc length: 3503 seconds
#
# Revision: 0
# Processed by: cddbd v1.5.2PL0 Copyright (c) Steve Scherf et al.
# Submitted via: CDex 1.70beta2
#
DISCID=b60dad0d
DTITLE=Various artist - 滄海一聲笑
DYEAR=1900
DGENRE=New Age
TTITLE0=獅子山下
TTITLE1=明星
TTITLE2=忘記他
TTITLE3=上海灘
TTITLE4=兩忘煙水裏
TTITLE5=摇摇摇
TTITLE6=當年情
TTITLE7=舊夢不須記
TTITLE8=黎明不要來/焚心以火
TTITLE9=忘盡心中情
TTITLE10=問我
TTITLE11=我的中國心
TTITLE12=男兒當自強/滄海一聲笑
EXTD=
EXTT0=
EXTT1=
EXTT2=
EXTT3=
EXTT4=
EXTT5=
EXTT6=
EXTT7=
EXTT8=
EXTT9=
EXTT10=
EXTT11=
EXTT12=
PLAYORDER=
